<?xml version="1.0" encoding="iso-8859-1"?>
<!-- Generator: Adobe Illustrator 19.0.0, SVG Export Plug-In . SVG Version: 6.00 Build 0)  -->
<svg version="1.1" id="Capa_1" xmlns="http://www.w3.org/2000/svg" xmlns:xlink="http://www.w3.org/1999/xlink" x="0px" y="0px"
	 viewBox="0 0 512 512" style="enable-background:new 0 0 512 512;" xml:space="preserve">
<path style="fill:#F3705B;" d="M160,132.267c-28.8,0-58.667-3.2-87.467-10.667c0-25.6,0-51.2,0-76.8
	c28.8,7.467,58.667,10.667,87.467,10.667C160,81.067,160,106.667,160,132.267z"/>
<g>
	<path style="fill:#F3F3F3;" d="M248.533,126.933c-28.8,3.2-58.667,5.333-87.467,5.333c0-25.6,0-51.2,0-76.8
		c28.8,0,58.667-2.133,87.467-5.333C248.533,75.733,248.533,101.333,248.533,126.933z"/>
	<path style="fill:#F3F3F3;" d="M424.533,110.933c-28.8,0-58.667,2.133-87.467,5.333c0-25.6,0-51.2,0-76.8
		c28.8-3.2,58.667-5.333,87.467-5.333C424.533,59.733,424.533,85.333,424.533,110.933z"/>
</g>
<path style="fill:#F3705B;" d="M512,121.6c-28.8-7.467-58.667-10.667-87.467-10.667c0-25.6,0-51.2,0-76.8
	c28.8,0,58.667,3.2,87.467,10.667C512,70.4,512,96,512,121.6z"/>
<path style="fill:#F3F3F3;" d="M160,209.067c-28.8,0-58.667-3.2-87.467-10.667c0-25.6,0-51.2,0-76.8
	c28.8,7.467,58.667,10.667,87.467,10.667C160,157.867,160,183.467,160,209.067z"/>
<g>
	<path style="fill:#F3705B;" d="M248.533,203.733c-28.8,3.2-58.667,5.333-87.467,5.333c0-25.6,0-51.2,0-76.8
		c28.8,0,58.667-2.133,87.467-5.333C248.533,152.533,248.533,178.133,248.533,203.733z"/>
	<path style="fill:#F3705B;" d="M424.533,187.733c-28.8,0-58.667,2.133-87.467,5.333c0-25.6,0-51.2,0-76.8
		c28.8-3.2,58.667-5.333,87.467-5.333C424.533,136.533,424.533,162.133,424.533,187.733z"/>
</g>
<path style="fill:#F3F3F3;" d="M512,198.4c-28.8-7.467-58.667-10.667-87.467-10.667c0-25.6,0-51.2,0-76.8
	c28.8,0,58.667,3.2,87.467,10.667C512,147.2,512,172.8,512,198.4z"/>
<path style="fill:#F3705B;" d="M160,285.867c-28.8,0-58.667-3.2-87.467-10.667c0-25.6,0-51.2,0-76.8
	c28.8,7.467,58.667,10.667,87.467,10.667C160,234.667,160,260.267,160,285.867z"/>
<g>
	<path style="fill:#F3F3F3;" d="M248.533,280.533c-28.8,3.2-58.667,5.333-87.467,5.333c0-25.6,0-51.2,0-76.8
		c28.8,0,58.667-2.133,87.467-5.333C248.533,229.333,248.533,254.933,248.533,280.533z"/>
	<path style="fill:#F3F3F3;" d="M424.533,264.533c-28.8,0-58.667,2.133-87.467,5.333c0-25.6,0-51.2,0-76.8
		c28.8-3.2,58.667-5.333,87.467-5.333C424.533,213.333,424.533,238.933,424.533,264.533z"/>
</g>
<g>
	<path style="fill:#F3705B;" d="M512,275.2c-28.8-7.467-58.667-10.667-87.467-10.667c0-25.6,0-51.2,0-76.8
		c28.8,0,58.667,3.2,87.467,10.667C512,224,512,249.6,512,275.2z"/>
	<path style="fill:#F3705B;" d="M336,116.267c-28.8,3.2-58.667,7.467-87.467,10.667c0-25.6,0-51.2,0-76.8
		c28.8-3.2,58.667-7.467,87.467-10.667C336,65.067,336,90.667,336,116.267z"/>
</g>
<path style="fill:#F3F3F3;" d="M336,193.067c-28.8,3.2-58.667,7.467-87.467,10.667c0-25.6,0-51.2,0-76.8
	c28.8-3.2,58.667-7.467,87.467-10.667C336,141.867,336,167.467,336,193.067z"/>
<path style="fill:#F3705B;" d="M336,269.867c-28.8,3.2-58.667,7.467-87.467,10.667c0-25.6,0-51.2,0-76.8
	c28.8-3.2,58.667-7.467,87.467-10.667C336,218.667,336,244.267,336,269.867z"/>
<path style="fill:#F3F3F3;" d="M160,362.667c-28.8,0-58.667-3.2-87.467-10.667c0-25.6,0-51.2,0-76.8
	c28.8,7.467,58.667,10.667,87.467,10.667C160,311.467,160,337.067,160,362.667z"/>
<path style="fill:#F3705B;" d="M248.533,357.333c-29.867,3.2-58.667,5.333-88.533,5.333c0-25.6,0-51.2,0-76.8
	c28.8,0,58.667-2.133,87.467-5.333C248.533,306.133,248.533,331.733,248.533,357.333z"/>
<path style="fill:#F3F3F3;" d="M336,346.667c-28.8,3.2-58.667,7.467-87.467,10.667c0-25.6,0-51.2,0-76.8
	c28.8-3.2,58.667-7.467,87.467-10.667C336,295.467,336,321.067,336,346.667z"/>
<path style="fill:#F3705B;" d="M424.533,341.333c-28.8,0-58.667,2.133-87.467,5.333c0-25.6,0-51.2,0-76.8
	c28.8-3.2,58.667-5.333,87.467-5.333C424.533,290.133,424.533,315.733,424.533,341.333z"/>
<path style="fill:#F3F3F3;" d="M512,352c-28.8-7.467-58.667-10.667-87.467-10.667c0-25.6,0-51.2,0-76.8
	c28.8,0,58.667,3.2,87.467,10.667C512,300.8,512,326.4,512,352z"/>
<path style="fill:#FFD15D;" d="M36.267,0C16,0,0,16,0,36.267V512h72.533V36.267C72.533,16,56.533,0,36.267,0z"/>
<g>
</g>
<g>
</g>
<g>
</g>
<g>
</g>
<g>
</g>
<g>
</g>
<g>
</g>
<g>
</g>
<g>
</g>
<g>
</g>
<g>
</g>
<g>
</g>
<g>
</g>
<g>
</g>
<g>
</g>
</svg>
